<svg width="209.811" height="209.811" xmlns="http://www.w3.org/2000/svg">

 <g>
  <title>background</title>
  <rect fill="none" id="canvas_background" height="402" width="582" y="-1" x="-1"/>
 </g>
 <g>
  <title>Layer 1</title>
  <g id="svg_1">
   <path fill="#0093fa" id="svg_2" d="m209.766006,181.682007l-18.384003,-155.083006c-0.388,-3.271002 -3.161011,-5.735001 -6.455002,-5.735001l-43.671005,0c-0.061996,-0.000999 -0.123993,-0.000999 -0.18399,0l-134.572006,0c-3.59,0 -6.5,2.91 -6.5,6.5l0,155.082991c0,3.589996 2.91,6.5 6.5,6.5l133.542007,0c3.589996,0 6.5,-2.910004 6.5,-6.5l0,-54.426987l6.542007,55.192001c0.388,3.271011 3.160995,5.735001 6.455002,5.735001l43.770996,0c1.856995,0 3.625,-0.793991 4.858994,-2.182999c1.235001,-1.388 1.814987,-3.238007 1.597,-5.082001zm-16.710007,-30.529007l-30.681,0l-10.964005,-92.494999l30.014008,0c0.225998,0 0.442993,-0.031002 0.658997,-0.066002l10.972,92.561001zm-59.513992,0l-30.770996,0l0,-92.494999l30.770996,0l0,92.494999zm-75.657009,0l0,-92.494999l31.886005,0l0,92.494999l-31.886005,0zm31.886005,8l0,16.794006l-31.886005,0l0,-16.794006l31.886005,0zm-76.771004,-100.494999l31.884998,0l0,92.494999l-31.884998,0l0,-92.494999zm44.884998,-8l0,-16.794003l31.886005,0l0,16.794003l-31.886005,0zm121.268002,-16.794003l1.990997,16.794003l-30.679993,0l-1.990997,-16.794003l30.679993,0zm-45.610992,16.794003l-30.770996,0l0,-16.794003l30.770996,0l0,16.794003zm-88.657009,-16.794003l0,16.794003l-31.884998,0l0,-16.794003l31.884998,0zm-31.884998,125.289001l31.884998,0l0,16.794006l-31.884998,0l0,-16.794006zm89.771004,16.794006l0,-16.793991l30.771004,0l0,16.793991l-30.771004,0zm62.542992,0l-1.990997,-16.793991l30.681,0l1.990997,16.793991l-30.681,0z"/>
  </g>
  <g id="svg_3"/>
  <g id="svg_4"/>
  <g id="svg_5"/>
  <g id="svg_6"/>
  <g id="svg_7"/>
  <g id="svg_8"/>
  <g id="svg_9"/>
  <g id="svg_10"/>
  <g id="svg_11"/>
  <g id="svg_12"/>
  <g id="svg_13"/>
  <g id="svg_14"/>
  <g id="svg_15"/>
  <g id="svg_16"/>
  <g id="svg_17"/>
 </g>
</svg>